# xmcd
#
# Track frame offsets: 
#        150
#        18020
#        35340
#        46765
#        69177
#        93502
#
# Disc length: 1250 seconds
#
# Revision: 1
# Processed by: cddbd v1.5.2PL0 Copyright (c) Steve Scherf et al.
# Submitted via: ExactAudioCopy v1.0b4
#
DISCID=3904e006
DTITLE=Syrup16g - Free Throw
DYEAR=1999
DGENRE=Rock
TTITLE0=翌日
TTITLE1=Sonic Disorder
TTITLE2=Honolulu★Rock
TTITLE3=明日を落としても
TTITLE4=真空
TTITLE5=deta track
EXTD=YEAR: 1999
EXTT0=
EXTT1=
EXTT2=
EXTT3=
EXTT4=
EXTT5=
PLAYORDER=
